<svg width="681" height="760" viewBox="0 0 681 760" fill="none" xmlns="http://www.w3.org/2000/svg">
<path d="M348.381 77.1049C364.784 83.0814 382.728 83.4663 400.255 83.8422C402.399 83.8882 404.537 83.9341 406.665 83.99C426.322 84.5067 445.19 85.8752 461.33 95.6144C477.756 105.526 494.663 118.658 507.592 134.063C520.525 149.473 529.396 167.057 529.963 185.907C530.317 197.664 525.03 209.175 517.081 220.576C510.5 230.015 502.213 239.22 494.03 248.309C492.326 250.202 490.627 252.089 488.948 253.972C479.273 264.831 470.261 275.588 465.493 286.2C463.097 291.531 461.74 296.893 461.936 302.266C462.134 307.658 463.895 312.969 467.594 318.181C478.628 333.729 495.186 341.962 514.136 346.653C532.231 351.133 552.692 352.426 572.879 353.701C573.801 353.759 574.722 353.818 575.642 353.876C596.796 355.22 617.512 356.703 635.147 361.88C652.738 367.043 667.089 375.832 675.703 391.681C678.588 396.988 679.226 401.533 678.289 405.549C677.345 409.595 674.752 413.323 670.757 416.876C662.715 424.027 649.476 430.058 634.578 436.264C632.053 437.316 629.484 438.371 626.89 439.437C614.284 444.616 601.093 450.036 589.627 456.401C575.824 464.064 564.204 473.261 559.105 485.397C553.835 497.94 554.909 512.451 558.568 527.359C561.574 539.607 566.379 552.316 571.034 564.624C572.045 567.299 573.049 569.954 574.026 572.581C579.534 587.395 584.16 601.284 584.662 613.075C584.912 618.942 584.134 624.205 581.991 628.766C579.857 633.309 576.326 637.252 570.904 640.424C558.02 647.963 544.475 646.795 530.272 640.911C516.013 635.004 501.325 624.437 486.338 613.491C485.789 613.09 485.24 612.689 484.691 612.287C470.306 601.776 455.668 591.079 441.134 584.322C426.016 577.294 410.764 574.41 395.84 580.595C381.291 586.624 372.362 598.031 366.348 612.074C360.354 626.072 357.198 642.829 354.253 659.735C354.016 661.098 353.78 662.462 353.544 663.825C350.841 679.45 348.141 695.054 343.424 708.891C338.302 723.914 330.86 736.665 318.637 744.983C299.839 757.775 275.203 760.265 250.563 755.944C225.936 751.626 201.503 740.534 183.301 726.441C163.729 711.286 154.907 688.203 147.544 663.261C146.284 658.992 145.066 654.667 143.843 650.322C137.962 629.431 131.95 608.076 120.441 590.316C115.343 582.45 107.861 575.93 99.6569 570.03C94.4499 566.285 88.8579 562.727 83.3591 559.23C80.2327 557.241 77.1365 555.271 74.1582 553.297C57.4629 542.231 44.3191 530.915 45.1836 513.679C45.7788 501.811 51.7657 491.496 60.5066 481.865C68.5388 473.016 78.7648 464.882 89.0064 456.735C89.9287 456.002 90.8511 455.268 91.7721 454.534C102.857 445.695 113.742 436.755 121.243 426.932C128.782 417.062 133.01 406.16 130.554 393.463C127.893 379.701 119.17 369.965 107.627 362.31C96.1207 354.679 81.6486 349.009 67.2602 343.433L66.3456 343.079C52.1928 337.595 38.1697 332.162 26.7748 324.986C15.1628 317.674 6.46129 308.662 3.1519 296.14C-1.52603 278.441 9.11719 262.593 25.9036 248.891C42.625 235.243 64.9421 224.154 82.3864 216.036C90.686 212.174 100.433 211.609 110.882 212.552C118.994 213.284 127.39 214.907 135.749 216.522C138.172 216.991 140.592 217.458 143.001 217.904C153.641 219.87 164.075 221.399 173.236 220.393C182.473 219.379 190.522 215.774 196.201 207.436C205.953 193.117 209.276 176.075 209.671 158.04C210.018 142.186 208.099 125.421 206.212 108.927C205.955 106.68 205.698 104.437 205.448 102.203C203.354 83.5029 201.707 65.364 203.754 49.1899C205.795 33.0626 211.495 19.0128 224.014 8.36756C228.411 4.62885 232.853 2.65144 237.341 2.01598C241.841 1.37896 246.489 2.07643 251.308 3.84713C261.001 7.40827 271.159 15.2207 281.761 24.6928C286.531 28.9541 291.356 33.5189 296.246 38.1448C296.774 38.6447 297.304 39.1454 297.834 39.6465C303.26 44.7768 308.762 49.9459 314.314 54.7833C325.395 64.4379 336.796 72.8838 348.381 77.1049Z" stroke="#DC3635" stroke-width="3"/>
</svg>
