<svg width="681" height="760" viewBox="0 0 681 760" fill="none" xmlns="http://www.w3.org/2000/svg">
<g filter="url(#filter0_i_1_37)">
<path d="M348.811 75.7833C385.055 88.9894 428.99 74.4857 462.021 94.4179C495.07 114.36 530.216 147.349 531.378 185.95C532.851 234.889 440.403 277.482 468.733 317.401C511.721 377.973 641.465 325.787 676.937 391.052C701.083 435.477 579.991 439.448 560.404 486.066C540.072 534.457 616.862 615.31 571.577 641.807C517.846 673.245 453.836 558.237 396.331 582.068C340.027 605.401 369.79 712.019 319.397 746.311C280.934 772.485 219.086 756.199 182.299 727.715C142.327 696.764 146.597 633.653 119.098 591.219C99.3097 560.685 41.7783 550.039 43.6014 513.692C46.0804 464.265 138.394 442.422 128.998 393.835C118.764 340.92 15.3889 348.717 1.61759 296.611C-8.2204 259.388 46.7808 230.999 81.6694 214.764C116.268 198.664 173.388 238.232 194.877 206.68C232.971 150.746 171.413 51.1438 222.958 7.31261C259.658 -23.8945 303.557 59.2946 348.811 75.7833Z" fill="#DC3635"/>
</g>
<path d="M348.64 76.2531C364.876 82.169 382.644 82.5518 400.195 82.9298C402.337 82.976 404.475 83.0221 406.608 83.0781C426.255 83.5946 445.372 84.9555 461.763 94.846C478.254 104.797 495.256 117.996 508.274 133.508C521.294 149.022 530.302 166.815 530.878 185.965C531.242 198.04 525.812 209.77 517.817 221.236C511.198 230.73 502.859 239.992 494.675 249.082C492.975 250.97 491.281 252.851 489.611 254.725C479.923 265.597 471.017 276.246 466.321 286.698C463.969 291.932 462.662 297.139 462.852 302.317C463.042 307.501 464.731 312.626 468.325 317.69C479.168 332.968 495.467 341.11 514.292 345.77C532.297 350.228 552.676 351.516 572.893 352.793C573.803 352.851 574.713 352.908 575.622 352.966C596.754 354.308 617.584 355.795 635.345 361.008C653.09 366.217 667.714 375.13 676.498 391.291C679.471 396.762 680.183 401.558 679.179 405.864C678.172 410.18 675.423 414.077 671.337 417.711C663.148 424.993 649.745 431.082 634.878 437.275C632.343 438.331 629.766 439.39 627.168 440.458C614.562 445.637 601.438 451.029 590.028 457.363C576.274 464.999 564.907 474.057 559.943 485.872C554.798 498.118 555.813 512.373 559.455 527.208C562.445 539.391 567.224 552.031 571.877 564.338C572.89 567.017 573.898 569.681 574.879 572.321C580.38 587.117 585.068 601.148 585.577 613.12C585.831 619.096 585.042 624.531 582.812 629.279C580.585 634.021 576.906 638.109 571.325 641.375C558.075 649.128 544.176 647.876 529.805 641.923C515.416 635.961 500.629 625.316 485.664 614.387C485.127 613.994 484.59 613.601 484.052 613.208C469.637 602.675 455.071 592.031 440.628 585.316C425.637 578.347 410.698 575.573 396.139 581.606C381.905 587.505 373.131 598.666 367.183 612.555C361.242 626.43 358.101 643.073 355.155 659.994C354.916 661.361 354.68 662.729 354.443 664.099C351.743 679.704 349.03 695.385 344.286 709.301C339.128 724.43 331.589 737.41 319.115 745.898C300.029 758.886 275.098 761.364 250.306 757.017C225.518 752.671 200.934 741.512 182.605 727.319C162.757 711.951 153.866 688.58 146.501 663.632C145.232 659.334 144.008 654.99 142.781 650.632C136.899 629.745 130.936 608.568 119.517 590.947C114.52 583.236 107.155 576.803 98.9889 570.929C93.8007 567.198 88.2576 563.672 82.7784 560.187C79.6458 558.194 76.5341 556.215 73.5216 554.218C56.8709 543.182 43.2049 531.578 44.1007 513.717C44.7123 501.523 50.8642 490.996 59.682 481.281C67.7717 472.368 78.0616 464.184 88.2882 456.05C89.2148 455.313 90.1408 454.576 91.0646 453.84C102.164 444.989 112.949 436.123 120.365 426.413C127.792 416.688 131.873 406.071 129.488 393.74C126.896 380.334 118.401 370.799 106.99 363.231C95.5908 355.671 81.2257 350.038 66.8148 344.453L65.8527 344.081C51.7372 338.612 37.6357 333.148 26.1578 325.92C14.4285 318.534 5.49934 309.341 2.10099 296.483C-2.73765 278.176 8.33729 261.958 25.1872 248.204C42.0154 234.469 64.4361 223.335 81.8803 215.217C90.4133 211.247 100.367 210.695 110.888 211.644C119.056 212.381 127.518 214.017 135.886 215.634C138.301 216.101 140.708 216.566 143.098 217.008C153.742 218.975 164.044 220.475 173.042 219.487C182.066 218.496 189.816 214.999 195.29 206.961C204.89 192.866 208.195 176.043 208.587 158.106C208.932 142.325 207.023 125.633 205.135 109.131C204.878 106.884 204.621 104.64 204.37 102.402C202.278 83.7117 200.614 65.4604 202.678 49.1521C204.74 32.8594 210.518 18.5471 223.282 7.69352C227.806 3.84669 232.42 1.77858 237.117 1.11362C241.817 0.44814 246.635 1.18331 251.569 2.99625C261.456 6.62871 271.737 14.5583 282.344 24.0349C287.124 28.3059 291.959 32.8803 296.847 37.5041C297.376 38.0048 297.906 38.5061 298.436 39.0076C303.863 44.1383 309.352 49.2946 314.887 54.1171C325.949 63.7553 337.236 72.0979 348.64 76.2531Z" stroke="#DC3635"/>
<defs>
<filter id="filter0_i_1_37" x="0.457886" y="0.371948" width="684.649" height="763.116" filterUnits="userSpaceOnUse" color-interpolation-filters="sRGB">
<feFlood flood-opacity="0" result="BackgroundImageFix"/>
<feBlend mode="normal" in="SourceGraphic" in2="BackgroundImageFix" result="shape"/>
<feColorMatrix in="SourceAlpha" type="matrix" values="0 0 0 0 0 0 0 0 0 0 0 0 0 0 0 0 0 0 127 0" result="hardAlpha"/>
<feOffset dx="5" dy="4"/>
<feGaussianBlur stdDeviation="2.5"/>
<feComposite in2="hardAlpha" operator="arithmetic" k2="-1" k3="1"/>
<feColorMatrix type="matrix" values="0 0 0 0 0 0 0 0 0 0 0 0 0 0 0 0 0 0 0.25 0"/>
<feBlend mode="normal" in2="shape" result="effect1_innerShadow_1_37"/>
</filter>
</defs>
</svg>
