<svg width="681" height="760" viewBox="0 0 681 760" fill="none" xmlns="http://www.w3.org/2000/svg">
<path d="M349.138 75.9899C365.374 81.9058 383.143 82.2886 400.693 82.6667C402.835 82.7128 404.974 82.7589 407.106 82.8149C426.754 83.3314 445.871 84.6923 462.261 94.5828C478.752 104.534 495.754 117.733 508.772 133.245C521.792 148.758 530.8 166.551 531.377 185.702C531.74 197.777 526.31 209.506 518.316 220.973C511.696 230.467 503.357 239.729 495.173 248.818C493.473 250.707 491.779 252.588 490.109 254.462C480.422 265.333 471.515 275.983 466.819 286.435C464.467 291.669 463.16 296.876 463.35 302.054C463.54 307.238 465.23 312.363 468.824 317.427C479.666 332.705 495.965 340.846 514.79 345.507C532.796 349.965 553.174 351.253 573.391 352.53C574.301 352.587 575.211 352.645 576.12 352.703C597.252 354.045 618.082 355.532 635.843 360.745C653.589 365.954 668.213 374.867 676.996 391.028C679.97 396.499 680.682 401.295 679.677 405.601C678.67 409.917 675.922 413.814 671.836 417.447C663.646 424.73 650.244 430.819 635.376 437.012C632.841 438.068 630.265 439.127 627.666 440.195C615.06 445.374 601.936 450.766 590.527 457.1C576.773 464.736 565.406 473.794 560.441 485.609C555.296 497.855 556.312 512.11 559.953 526.945C562.943 539.128 567.722 551.767 572.376 564.075C573.389 566.754 574.396 569.418 575.377 572.057C580.878 586.854 585.566 600.885 586.075 612.857C586.33 618.833 585.541 624.268 583.311 629.016C581.083 633.758 577.404 637.846 571.823 641.112C558.573 648.865 544.675 647.613 530.304 641.659C515.914 635.698 501.127 625.053 486.163 614.123C485.625 613.731 485.088 613.338 484.55 612.945C470.136 602.412 455.569 591.767 441.126 585.053C426.136 578.084 411.196 575.31 396.637 581.343C382.404 587.242 373.629 598.403 367.682 612.292C361.74 626.167 358.6 642.81 355.653 659.731C355.415 661.098 355.178 662.466 354.941 663.836C352.241 679.441 349.529 695.122 344.785 709.038C339.627 724.167 332.087 737.147 319.614 745.635C300.527 758.623 275.596 761.101 250.804 756.754C226.016 752.408 201.433 741.249 183.103 727.056C163.255 711.688 154.364 688.316 146.999 663.369C145.73 659.071 144.507 654.727 143.28 650.369C137.398 629.481 131.434 608.305 120.016 590.684C115.018 582.973 107.654 576.539 99.4872 570.666C94.299 566.935 88.7559 563.409 83.2767 559.924C80.1441 557.931 77.0324 555.952 74.0199 553.955C57.3692 542.919 43.7032 531.315 44.599 513.453C45.2106 501.26 51.3625 490.733 60.1803 481.018C68.27 472.105 78.5598 463.921 88.7865 455.786C89.7131 455.05 90.6391 454.313 91.5629 453.576C102.663 444.726 113.448 435.859 120.863 426.15C128.29 416.425 132.371 405.807 129.987 393.477C127.394 380.071 118.9 370.536 107.488 362.968C96.0891 355.408 81.724 349.775 67.3131 344.19L66.351 343.817C52.2355 338.348 38.134 332.885 26.6561 325.657C14.9268 318.271 5.99763 309.078 2.59928 296.22C-2.23936 277.913 8.83558 261.695 25.6855 247.941C42.5137 234.205 64.9344 223.072 82.3786 214.954C90.9116 210.984 100.865 210.431 111.386 211.381C119.554 212.117 128.017 213.753 136.385 215.371C138.8 215.838 141.207 216.303 143.597 216.745C154.24 218.712 164.542 220.212 173.541 219.224C182.565 218.233 190.314 214.736 195.788 206.698C205.388 192.603 208.693 175.78 209.085 157.843C209.431 142.062 207.521 125.37 205.633 108.868C205.376 106.62 205.119 104.377 204.869 102.139C202.776 83.4485 201.112 65.1973 203.176 48.889C205.238 32.5962 211.017 18.284 223.78 7.43033C228.304 3.5835 232.918 1.5154 237.615 0.850439C242.316 0.184956 247.133 0.92013 252.067 2.73307C261.954 6.36553 272.235 14.2952 282.842 23.7717C287.622 28.0427 292.458 32.6171 297.345 37.2409C297.874 37.7416 298.404 38.2429 298.935 38.7444C304.362 43.8752 309.851 49.0314 315.386 53.8539C326.448 63.4922 337.734 71.8347 349.138 75.9899Z" stroke="#DC3635"/>
</svg>
